{"glyphs":{":":{"x_min":0,"x_max":240,"ha":240,"o":"m 127 320 l 127 409 q 105 407 94 395 q 83 382 83 365 q 83 348 95 335 q 107 321 127 320 z m 127 424 q 152 424 169 406 q 187 389 187 364 q 187 339 169 322 q 152 304 127 304 q 103 304 85 322 q 67 339 67 364 q 67 389 85 406 q 103 424 127 424 z m 126 10 l 126 99 q 106 97 94 85 q 83 73 83 55 q 83 38 94 25 q 105 12 126 10 z m 126 114 q 151 114 169 96 q 187 79 187 54 q 187 28 169 11 q 151 -6 126 -6 q 101 -6 83 11 q 66 29 66 54 q 66 79 83 96 q 101 114 126 114 z"},"$":{"x_min":0,"x_max":479,"ha":479,"o":"m 324 688 l 327 691 q 301 708 261 708 q 202 708 161 683 q 120 658 100 620 q 80 582 80 548 q 80 519 97 480 q 114 442 149 407 q 179 377 226 339 q 273 301 296 279 q 320 257 335 228 q 351 199 351 161 q 351 102 306 64 q 260 26 199 26 q 171 26 140 36 l 139 32 q 164 21 185 17 q 206 12 220 12 q 270 12 308 35 q 346 59 366 95 q 386 131 386 168 q 386 194 376 227 q 365 260 323 302 q 302 324 245 371 q 188 418 167 438 q 146 457 126 488 q 107 518 107 551 q 107 591 128 625 q 150 659 186 679 q 222 699 261 699 q 307 699 324 688 z m 267 733 l 267 719 q 304 718 334 701 q 363 685 384 658 q 404 631 416 594 l 408 594 q 380 637 344 660 q 307 684 264 682 q 259 544 259 513 l 259 426 q 310 385 340 357 q 370 329 390 303 q 411 276 421 248 q 431 219 431 185 q 431 128 403 87 q 375 47 337 25 q 298 2 267 -2 l 269 -46 l 213 -46 l 215 -6 q 181 -6 149 9 q 117 24 94 50 q 70 76 60 102 l 66 103 q 126 31 217 37 q 220 108 220 201 l 220 325 q 171 364 138 398 q 104 432 85 469 q 66 506 66 547 q 66 598 101 648 q 135 697 212 715 l 212 733 z m 260 290 l 260 167 q 260 148 262 110 q 264 72 264 52 q 293 65 314 93 q 336 122 336 158 q 336 200 314 234 q 292 267 260 290 z m 219 459 l 219 548 q 219 571 215 670 q 184 658 165 630 q 146 602 146 572 q 146 510 219 459 z"},"?":{"x_min":0,"x_max":292,"ha":292,"o":"m 44 681 l 41 685 q 79 723 131 723 q 165 723 195 706 q 225 688 241 658 q 258 628 258 592 q 258 545 236 503 q 215 461 172 405 q 130 349 110 315 q 91 282 91 246 q 91 213 111 190 q 132 167 160 164 l 160 157 q 111 157 76 198 q 42 239 42 299 q 42 344 59 385 q 75 426 106 476 q 137 525 150 552 q 164 578 164 608 q 164 632 155 651 q 146 671 129 682 q 112 694 89 694 q 79 694 67 691 q 55 688 44 681 z m 121 10 l 121 98 q 102 97 90 84 q 77 71 77 51 q 77 37 89 24 q 102 11 121 10 z m 133 697 l 133 694 q 179 662 179 602 q 179 572 165 543 q 150 515 119 463 q 87 412 71 373 q 55 334 55 290 q 55 268 61 250 q 67 232 80 210 l 85 213 q 71 232 71 270 q 71 312 88 350 q 106 389 139 439 q 172 489 188 521 q 205 554 205 588 q 205 607 200 624 q 195 641 186 656 q 176 671 162 682 q 149 692 133 697 z m 121 113 q 146 113 163 95 q 180 78 180 53 q 180 28 163 10 q 146 -7 121 -7 q 96 -7 79 11 q 61 28 61 53 q 61 78 79 95 q 96 113 121 113 z"},"<":{"x_min":0,"x_max":549,"ha":549,"o":"m 26 230 l 26 292 l 523 522 l 523 460 l 90 261 l 523 62 l 523 0 z"},"'":{"x_min":0,"x_max":180,"ha":180,"o":"m 79 392 l 52 537 l 43 586 q 41 603 41 612 q 41 646 52 661 q 64 677 89 677 q 113 677 126 662 q 139 647 139 620 q 139 603 135 586 l 126 536 l 100 392 z m 90 417 l 90 664 q 69 665 62 648 q 55 632 56 597 l 84 417 z"},"=":{"x_min":0,"x_max":549,"ha":549,"o":"m 537 390 l 537 335 l 11 335 l 11 390 z m 537 196 l 537 141 l 11 141 l 11 196 z"},"a":{"x_min":0,"x_max":813,"ha":813,"o":"m 383 626 l 636 19 l 669 19 l 399 667 z m 375 585 q 362 559 340 509 q 318 459 301 416 q 283 373 264 323 q 245 274 239 259 q 268 255 306 253 q 344 252 379 252 q 464 252 519 259 q 500 314 456 416 q 412 518 375 585 z m 427 722 l 638 218 q 679 119 734 22 l 815 5 l 815 0 l 470 0 l 470 5 l 603 22 q 596 70 576 127 q 556 184 532 226 l 226 226 q 207 177 195 145 q 183 113 172 79 q 161 45 157 22 l 285 5 l 285 0 l 12 0 l 12 5 l 102 22 q 135 79 162 147 l 388 722 z"},"L":{"x_min":0,"x_max":625,"ha":625,"o":"m 166 697 l 166 19 l 200 19 l 200 697 z m 18 710 l 18 715 l 387 715 l 387 710 l 266 693 q 260 646 255 565 q 251 485 251 425 l 251 215 q 251 139 259 57 q 342 31 431 31 q 474 31 510 36 q 546 41 561 45 l 612 178 l 619 178 l 596 0 l 17 0 l 17 5 l 134 22 q 140 45 144 105 q 148 166 150 229 q 153 293 153 320 l 153 443 q 153 483 151 536 q 149 588 146 628 q 144 667 139 693 z"},"3":{"x_min":0,"x_max":531,"ha":531,"o":"m 296 381 l 300 377 q 357 405 389 442 q 421 479 421 535 q 421 585 398 623 q 375 660 337 679 q 298 699 255 699 q 214 699 179 683 q 144 667 124 636 l 127 634 q 178 679 248 679 q 283 679 315 663 q 347 646 366 615 q 386 583 386 539 q 386 438 296 381 z m 299 363 l 295 357 q 332 343 357 320 q 381 296 393 267 q 405 237 405 203 q 405 162 386 123 q 368 83 329 57 q 291 31 236 31 q 213 31 195 34 q 178 37 163 42 q 149 46 134 52 l 134 47 q 167 31 195 23 q 223 16 253 16 q 302 16 345 40 q 389 64 414 107 q 440 149 440 199 q 440 239 421 273 q 402 307 370 330 q 339 352 299 363 z m 93 561 l 93 584 q 93 615 111 647 q 128 679 167 701 q 207 723 265 723 q 333 723 379 697 q 425 671 448 632 q 470 593 470 553 q 470 518 456 485 q 441 452 409 423 q 376 394 324 372 l 324 370 q 398 359 446 313 q 493 268 493 193 q 493 144 466 97 q 439 51 387 22 q 334 -7 261 -7 q 207 -7 161 11 q 115 29 78 66 q 42 104 19 159 l 24 161 q 63 108 117 75 q 171 42 233 42 q 272 42 308 60 q 344 79 366 115 q 388 152 388 202 q 388 257 353 302 q 318 347 241 361 l 241 367 q 301 389 335 434 q 370 478 370 537 q 370 583 350 612 q 330 642 301 655 q 272 667 246 667 q 223 667 192 658 q 161 649 135 626 q 109 603 101 561 z"},";":{"x_min":0,"x_max":240,"ha":240,"o":"m 126 320 l 126 409 q 105 407 94 395 q 83 382 83 365 q 83 348 95 334 q 106 321 126 320 z m 126 424 q 151 424 169 406 q 187 389 187 364 q 187 339 169 322 q 150 304 126 304 q 101 304 83 322 q 66 339 66 364 q 66 389 83 406 q 101 424 126 424 z m 127 8 l 127 97 q 83 93 83 51 q 83 34 94 22 q 105 11 127 8 z m 92 -90 l 87 -85 q 123 -49 126 -6 q 100 -6 83 11 q 67 29 67 51 q 67 76 83 94 q 99 112 127 112 q 157 112 171 90 q 186 68 186 44 q 186 -6 154 -42 q 122 -77 92 -90 z"},"J":{"x_min":0,"x_max":531,"ha":531,"o":"m 332 696 l 332 185 q 332 150 319 110 q 306 70 273 42 q 240 13 185 12 l 187 7 q 253 10 293 37 q 333 64 349 110 q 366 156 366 220 l 366 696 z m 417 462 l 417 241 q 417 120 357 56 q 296 -7 196 -7 q 179 -7 153 -4 q 126 -1 99 3 q 72 8 47 17 l 27 177 l 34 177 l 84 54 q 131 23 181 23 q 234 23 276 64 q 319 104 319 204 l 319 443 q 319 496 315 574 q 311 652 305 693 l 176 710 l 176 715 l 531 715 l 531 710 l 429 692 q 417 581 417 462 z"},"V":{"x_min":0,"x_max":813,"ha":813,"o":"m 124 696 l 404 42 l 421 82 l 159 696 z m 353 710 l 225 692 q 252 595 311 459 l 379 301 q 401 247 446 162 q 463 193 488 244 q 512 295 530 340 l 606 521 q 650 630 668 692 l 520 710 l 520 715 l 810 715 l 810 711 l 721 692 q 692 647 637 516 l 471 122 q 436 40 418 -20 l 411 -20 q 383 61 351 133 l 196 495 q 152 597 98 693 l 12 710 l 12 715 l 353 715 z"},"\"":{"x_min":0,"x_max":408,"ha":408,"o":"m 103 392 l 77 537 q 68 584 67 593 q 66 602 66 620 q 66 677 114 677 q 137 677 150 662 q 163 648 163 620 q 163 605 160 585 l 151 536 l 124 392 z m 282 392 l 256 535 l 246 585 q 244 601 244 611 q 244 645 256 661 q 268 677 294 677 q 317 677 330 662 q 342 648 342 620 q 342 601 340 585 q 334 542 333 535 l 305 392 z m 114 417 l 114 664 q 93 666 86 649 q 79 632 80 598 l 108 417 z m 292 417 l 292 664 q 271 665 264 648 q 257 632 258 597 l 287 417 z"},"7":{"x_min":0,"x_max":531,"ha":531,"o":"m 453 700 l 416 700 l 242 123 q 229 80 214 46 q 199 13 180 -4 l 184 -7 q 250 35 278 126 z m 116 719 l 523 719 q 496 667 462 557 l 350 191 q 327 114 302 69 q 277 24 236 0 q 196 -23 130 -28 l 130 -22 q 166 -13 188 28 q 211 69 228 126 l 343 502 q 352 529 360 560 q 368 591 375 619 q 381 647 385 673 q 322 688 234 688 q 188 688 149 686 q 110 685 72 679 l 35 564 l 29 564 l 41 726 q 73 719 116 719 z"},"S":{"x_min":0,"x_max":479,"ha":479,"o":"m 279 714 l 263 714 q 209 714 164 692 q 119 671 92 631 q 66 592 66 542 q 66 480 120 426 q 144 403 165 387 q 186 372 228 343 q 270 314 295 296 q 320 278 336 261 q 380 217 380 163 q 380 126 360 92 q 339 57 301 35 q 263 14 211 13 l 211 8 q 271 6 317 29 q 364 52 388 89 q 413 127 413 167 q 413 202 402 230 q 391 258 361 288 q 344 305 299 336 q 255 366 209 397 q 164 428 143 448 q 92 499 92 560 q 92 614 138 660 q 185 707 279 709 z m 40 171 l 77 51 q 105 38 142 30 q 180 22 207 23 q 244 23 274 36 q 305 48 324 68 q 343 87 354 112 q 364 137 364 160 q 364 208 331 242 q 298 275 221 327 q 145 378 110 413 q 80 444 65 475 q 51 506 51 544 q 51 586 74 627 q 97 669 145 697 q 192 724 262 724 q 294 724 330 721 q 365 718 379 718 q 391 718 401 719 q 411 719 417 719 q 423 720 430 721 l 433 554 l 427 554 l 396 667 q 328 697 278 697 q 236 697 202 681 q 169 665 150 637 q 132 610 132 575 q 132 539 157 509 q 182 479 225 450 q 268 421 318 389 q 367 357 397 327 q 455 269 455 193 q 455 150 433 104 q 410 59 357 27 q 304 -5 219 -5 q 189 -5 147 -1 q 104 2 84 2 q 75 2 70 1 q 64 1 54 0 q 43 -1 41 -1 l 33 171 z"},"}":{"x_min":0,"x_max":479,"ha":479,"o":"m 87 794 l 87 811 q 140 804 181 777 q 223 750 246 710 q 270 670 270 622 q 270 591 260 545 q 248 499 248 471 q 248 431 279 402 q 310 373 359 366 l 359 346 q 310 340 279 311 q 248 281 248 241 q 248 214 260 167 q 270 124 270 91 q 270 43 246 3 q 223 -38 181 -65 q 139 -92 87 -99 l 87 -82 q 197 -55 197 34 q 197 58 185 111 q 175 153 175 187 q 175 241 213 286 q 251 332 319 355 q 253 380 214 426 q 175 473 175 525 q 175 559 185 602 q 197 653 197 679 q 197 723 169 752 q 141 781 87 794 z"},"Z":{"x_min":0,"x_max":667,"ha":667,"o":"m 548 695 l 47 20 l 86 20 l 586 695 z m 54 554 l 76 723 q 120 719 131 718 q 158 715 181 715 l 645 715 l 645 695 l 328 268 q 297 226 254 163 q 211 100 187 54 q 211 47 274 39 q 336 31 375 31 l 445 31 q 461 31 507 35 q 552 39 581 44 l 633 169 l 640 169 l 615 0 l 30 0 l 30 19 l 359 464 q 435 566 490 661 q 472 668 419 677 q 367 686 316 686 l 240 686 q 214 686 167 682 q 120 677 103 673 l 61 554 z"},"x":{"x_min":0,"x_max":906,"ha":906,"o":"m 146 698 l 699 19 l 739 19 l 187 698 z m 11 715 l 420 715 l 420 710 l 264 694 q 291 653 313 621 q 336 588 363 554 q 390 521 422 483 q 455 445 489 406 q 527 445 577 502 q 627 559 666 608 q 705 658 727 694 l 578 710 l 578 715 l 905 715 l 905 710 l 790 695 q 759 667 720 623 q 681 579 637 526 q 593 473 561 431 q 528 390 517 371 q 546 332 594 272 q 641 212 679 167 q 717 121 752 83 q 787 44 813 21 l 904 5 l 904 0 l 507 0 l 507 5 l 662 22 q 622 90 557 171 q 492 253 430 320 q 380 269 333 213 q 286 158 247 108 q 208 57 184 22 l 333 5 l 333 0 l 9 0 l 9 5 l 121 22 q 191 90 272 188 q 354 286 403 355 q 355 418 306 480 q 256 542 205 603 q 154 663 120 694 l 11 710 z"},")":{"x_min":0,"x_max":240,"ha":240,"o":"m 81 642 l 76 642 q 87 604 95 554 q 104 505 107 456 q 111 407 111 356 q 111 310 108 259 q 104 208 97 163 q 90 117 78 77 l 83 77 q 99 113 111 149 q 123 186 130 218 q 137 250 141 288 q 145 326 145 363 q 145 431 127 506 q 109 582 81 642 z m 38 -16 l 34 -16 q 94 128 94 349 q 94 404 91 458 q 88 512 81 558 q 75 604 63 648 q 52 692 34 733 l 38 733 q 126 638 159 543 q 192 447 192 360 q 192 295 179 241 q 167 186 146 140 q 125 94 98 57 q 72 20 38 -16 z"},"&":{"x_min":0,"x_max":771,"ha":771,"o":"m 700 345 l 618 329 q 605 281 605 240 q 605 208 603 186 q 600 163 583 133 q 619 101 637 86 q 656 70 679 56 q 703 42 720 42 q 729 42 739 47 q 748 52 752 62 l 758 62 q 755 28 731 10 q 707 -8 675 -8 q 638 -8 610 6 q 581 20 532 61 q 497 30 451 11 q 406 -8 343 -8 q 268 -8 215 12 q 162 31 131 62 q 100 93 86 127 q 73 161 73 190 q 73 263 115 309 q 156 355 233 399 q 217 427 208 447 q 198 467 192 493 q 186 519 186 552 q 186 604 209 643 q 232 681 272 701 q 312 721 359 721 q 425 721 461 687 q 497 652 497 600 q 497 536 451 496 q 405 455 327 418 q 364 364 406 316 q 449 268 517 198 l 517 242 q 517 291 504 329 l 446 346 l 446 351 l 700 351 z m 339 689 q 305 689 280 664 q 255 638 255 593 q 255 561 270 521 q 285 481 309 447 q 342 466 365 492 q 388 519 400 549 q 412 579 412 609 q 412 636 402 654 q 392 672 376 681 q 359 689 339 689 z m 531 332 l 531 207 q 531 157 519 132 q 375 268 297 379 q 219 489 219 577 q 219 605 226 626 q 233 646 244 663 l 238 663 q 219 645 209 615 q 198 584 198 549 q 198 489 238 417 q 277 344 344 268 q 412 192 506 103 q 468 42 394 19 l 395 14 q 436 24 466 41 q 496 58 523 87 q 574 43 605 23 q 637 3 674 3 q 689 3 711 11 l 711 16 l 698 16 q 675 16 652 27 q 628 38 606 56 q 584 74 541 112 q 564 155 564 217 l 564 332 z m 377 697 l 377 693 q 391 688 403 675 q 416 662 422 645 q 429 627 429 608 q 429 561 398 514 q 367 466 314 436 l 317 431 q 380 463 418 508 q 456 553 456 599 q 456 639 432 664 q 407 689 377 697 z m 250 370 q 222 354 199 317 q 176 280 176 228 q 176 186 190 148 q 205 110 229 83 q 254 55 285 40 q 317 25 349 25 q 388 25 426 45 q 463 66 488 101 q 410 177 353 238 q 297 298 250 370 z m 240 384 l 237 390 q 176 353 144 319 q 112 286 101 255 q 90 224 90 192 q 90 141 120 98 q 150 56 206 30 q 263 4 333 2 l 333 8 q 271 12 223 42 q 175 71 149 115 q 123 160 123 206 q 123 235 134 266 q 144 296 171 328 q 198 359 240 384 z"},"_":{"x_min":0,"x_max":500,"ha":500,"o":"m -6 -125 l -6 -74 l 506 -74 l 506 -125 z"},"v":{"x_min":0,"x_max":813,"ha":813,"o":"m 124 696 l 404 42 l 421 82 l 159 696 z m 353 710 l 225 692 q 252 595 311 459 l 379 301 q 401 247 446 162 q 463 193 488 244 q 512 295 530 340 l 606 521 q 650 630 668 692 l 520 710 l 520 715 l 810 715 l 810 711 l 721 692 q 692 647 637 516 l 471 122 q 436 40 418 -20 l 411 -20 q 383 61 351 133 l 196 495 q 152 597 98 693 l 12 710 l 12 715 l 353 715 z"},"O":{"x_min":0,"x_max":865,"ha":865,"o":"m 436 725 q 540 725 616 690 q 692 656 741 600 q 790 543 812 480 q 835 417 835 359 q 835 292 809 229 q 784 165 734 112 q 684 59 610 27 q 536 -5 445 -5 q 313 -5 222 52 q 131 109 87 193 q 44 277 44 357 q 44 428 72 494 q 99 561 152 613 q 204 666 277 695 q 351 725 436 725 z m 439 691 q 363 691 299 651 q 235 612 197 537 q 159 462 159 361 q 159 251 200 176 q 242 101 306 64 q 371 28 440 28 q 496 28 546 49 q 597 71 636 112 q 676 153 698 214 q 720 274 720 348 q 720 450 697 510 q 673 571 628 616 q 589 655 540 673 q 491 691 439 691 z m 464 711 l 464 706 q 511 703 559 684 q 607 665 649 625 q 690 585 716 518 q 741 451 741 356 q 741 294 726 237 q 711 181 678 133 q 646 85 592 54 q 539 22 465 15 l 465 10 q 527 13 583 37 q 640 61 683 105 q 727 150 752 214 q 778 279 778 358 q 778 444 751 510 q 725 577 680 621 q 634 665 579 687 q 523 709 464 711 z m 416 706 l 416 711 q 348 710 283 682 q 218 653 168 604 q 119 554 92 491 q 64 428 64 359 q 64 274 110 194 q 156 113 238 63 q 319 13 417 10 l 417 15 q 322 23 250 74 q 177 125 139 200 q 101 275 101 356 q 101 422 123 483 q 145 544 187 592 q 228 640 287 670 q 346 700 416 706 z"},"(":{"x_min":0,"x_max":240,"ha":240,"o":"m 159 639 l 153 639 q 78 511 78 361 q 78 292 97 218 q 117 144 153 77 l 159 77 q 111 197 111 352 q 111 402 116 455 q 121 507 132 555 q 142 604 159 639 z m 220 -16 l 216 -16 q 183 20 156 56 q 129 93 107 140 q 85 186 73 241 q 60 295 60 359 q 60 437 79 504 q 98 571 133 627 q 168 684 216 733 l 220 733 q 158 601 158 359 q 158 241 172 154 q 186 67 220 -16 z"},"C":{"x_min":0,"x_max":771,"ha":771,"o":"m 522 713 l 465 713 q 380 713 309 685 q 238 657 189 607 q 140 557 114 491 q 89 426 89 351 q 89 283 115 220 q 141 158 192 110 q 243 61 314 34 q 385 7 472 7 q 511 7 522 8 l 522 14 q 425 12 349 40 q 273 67 224 117 q 174 167 150 229 q 126 292 126 356 q 126 419 147 481 q 168 542 212 594 q 255 645 325 676 q 394 706 488 706 l 522 706 z m 743 132 l 671 -2 q 624 2 603 2 q 577 2 533 -2 q 489 -6 465 -6 q 366 -6 290 25 q 214 55 165 107 q 116 159 92 222 q 68 285 68 349 q 68 432 96 501 q 124 571 175 621 q 227 671 295 698 q 363 724 442 724 q 462 724 468 724 q 473 724 491 723 q 509 722 528 721 q 594 717 629 717 q 707 717 731 721 l 737 557 l 731 557 l 698 666 q 684 669 646 676 q 609 682 574 686 q 539 690 500 690 q 399 690 328 650 q 256 609 220 535 q 184 461 184 365 q 184 291 210 228 q 236 165 282 121 q 329 77 388 54 q 447 31 513 31 q 579 31 636 53 q 693 75 738 134 z"},"W":{"x_min":0,"x_max":1104,"ha":1104,"o":"m 128 696 l 310 57 l 312 57 l 328 104 l 160 696 z m 568 617 l 553 577 l 790 53 l 804 97 z m 373 710 l 234 692 q 234 657 246 591 q 258 525 273 472 l 320 311 q 335 255 359 195 q 404 290 430 356 l 514 565 q 559 680 570 722 l 579 722 q 585 708 603 664 q 620 619 635 584 l 753 325 q 780 262 822 183 q 837 222 870 329 l 926 526 q 938 565 946 610 q 955 655 959 694 l 817 710 l 817 715 l 1104 715 l 1104 710 l 1017 693 q 1001 655 986 612 q 971 568 956 516 l 869 216 q 848 141 830 76 q 813 12 807 -19 l 799 -19 q 794 -5 785 20 q 775 45 770 59 q 765 73 756 94 q 747 115 738 134 l 601 439 q 559 525 547 548 q 537 532 517 487 q 498 441 495 432 l 381 150 q 369 121 360 96 q 351 72 341 44 q 331 17 319 -19 l 311 -19 q 302 30 266 161 l 174 486 q 142 599 102 693 l 17 710 l 17 715 l 373 715 z"},"A":{"x_min":0,"x_max":813,"ha":813,"o":"m 383 626 l 636 19 l 669 19 l 399 667 z m 375 585 q 362 559 340 509 q 318 459 301 416 q 283 373 264 323 q 245 274 239 259 q 268 255 306 253 q 344 252 379 252 q 464 252 519 259 q 500 314 456 416 q 412 518 375 585 z m 427 722 l 638 218 q 679 119 734 22 l 815 5 l 815 0 l 470 0 l 470 5 l 603 22 q 596 70 576 127 q 556 184 532 226 l 226 226 q 207 177 195 145 q 183 113 172 79 q 161 45 157 22 l 285 5 l 285 0 l 12 0 l 12 5 l 102 22 q 135 79 162 147 l 388 722 z"},"f":{"x_min":0,"x_max":573,"ha":573,"o":"m 159 696 l 159 18 l 193 18 l 193 696 z m 11 715 l 533 715 l 543 560 l 536 560 l 501 683 q 447 686 410 686 q 318 686 255 672 q 251 638 248 579 q 244 520 244 489 q 244 455 248 389 q 293 384 354 384 q 418 384 460 389 l 484 473 l 490 473 l 490 264 l 484 264 l 460 353 q 432 356 406 357 q 381 358 353 358 q 327 358 247 353 q 244 302 244 248 q 244 210 248 136 q 252 62 258 22 l 380 5 l 380 0 l 11 0 l 11 5 l 129 22 q 136 73 141 160 q 145 247 145 306 l 145 442 q 145 467 143 517 q 142 566 139 614 q 136 661 131 692 l 11 710 z"},"Q":{"x_min":0,"x_max":906,"ha":906,"o":"m 896 118 l 903 115 q 884 61 845 29 q 806 -4 746 -4 q 713 -4 682 4 q 651 12 606 29 q 564 11 520 3 q 476 -4 439 -4 q 339 -4 262 30 q 186 63 136 119 q 86 174 63 237 q 40 299 40 357 q 40 427 67 494 q 95 560 147 613 q 199 666 272 695 q 345 725 431 725 q 535 725 612 690 q 688 655 736 600 q 784 545 808 481 q 831 417 831 359 q 831 287 799 216 q 766 145 709 93 q 752 73 795 73 q 829 73 856 86 q 884 98 896 118 z m 638 121 q 656 140 674 173 q 692 207 704 252 q 716 297 716 348 q 716 418 705 468 q 693 517 673 552 q 653 586 623 616 q 548 691 434 691 q 358 691 294 651 q 230 612 192 536 q 154 461 154 361 q 154 287 172 232 q 190 177 216 142 q 242 107 267 89 q 307 134 344 156 q 382 177 435 177 q 509 177 638 121 z m 460 711 l 460 706 q 511 700 559 680 q 607 661 647 622 q 687 583 711 517 q 736 450 736 356 q 736 224 667 125 q 599 25 456 16 l 456 10 q 508 10 564 31 q 619 52 667 95 q 715 138 744 205 q 774 271 774 358 q 774 445 747 512 q 719 579 673 622 q 627 665 571 687 q 515 708 460 711 z m 412 706 l 412 711 q 345 710 280 681 q 215 652 166 603 q 116 554 88 491 q 59 427 59 359 q 59 294 85 233 q 111 171 160 121 q 208 71 274 42 q 339 12 416 10 l 416 16 q 342 22 281 53 q 221 84 180 132 q 139 181 118 238 q 97 296 97 356 q 97 444 136 521 q 175 598 247 647 q 318 697 412 706 z m 567 63 l 602 86 q 561 104 539 114 q 517 123 500 129 q 484 135 463 139 q 441 143 420 143 q 366 143 323 120 l 324 115 q 350 124 379 124 q 412 124 452 110 q 493 97 567 63 z m 273 83 q 350 29 439 29 q 496 29 543 52 q 419 110 358 110 q 306 110 273 83 z m 668 61 l 631 40 q 688 13 751 13 q 824 13 869 67 l 863 67 q 830 39 777 37 q 732 37 668 61 z"},"w":{"x_min":0,"x_max":1104,"ha":1104,"o":"m 128 696 l 310 57 l 312 57 l 328 104 l 160 696 z m 568 617 l 553 577 l 790 53 l 804 97 z m 373 710 l 234 692 q 234 657 246 591 q 258 525 273 472 l 320 311 q 335 255 359 195 q 404 290 430 356 l 514 565 q 559 680 570 722 l 579 722 q 585 708 603 664 q 620 619 635 584 l 753 325 q 780 262 822 183 q 837 222 870 329 l 926 526 q 938 565 946 610 q 955 655 959 694 l 817 710 l 817 715 l 1104 715 l 1104 710 l 1017 693 q 1001 655 986 612 q 971 568 956 516 l 869 216 q 848 141 830 76 q 813 12 807 -19 l 799 -19 q 794 -5 785 20 q 775 45 770 59 q 765 73 756 94 q 747 115 738 134 l 601 439 q 559 525 547 548 q 537 532 517 487 q 498 441 495 432 l 381 150 q 369 121 360 96 q 351 72 341 44 q 331 17 319 -19 l 311 -19 q 302 30 266 161 l 174 486 q 142 599 102 693 l 17 710 l 17 715 l 373 715 z"},"-":{"x_min":0,"x_max":573,"ha":573,"o":"m 517 403 l 488 334 l 133 334 q 98 334 65 317 l 95 385 l 441 385 q 492 385 517 403 z"},"E":{"x_min":0,"x_max":573,"ha":573,"o":"m 158 696 l 158 19 l 192 19 l 192 696 z m 10 710 l 10 715 l 530 715 l 542 563 l 534 563 l 499 682 q 458 685 406 685 q 312 685 254 672 q 244 593 244 491 q 244 428 248 388 q 325 384 346 384 q 401 384 460 390 l 482 473 l 490 473 l 490 265 l 482 265 l 459 353 q 417 358 365 358 q 301 358 248 352 q 242 295 244 241 q 245 172 247 127 q 248 82 252 49 q 312 31 408 31 q 464 31 502 35 l 541 153 l 548 153 l 537 0 l 11 0 l 11 5 l 128 22 q 132 42 135 83 q 138 124 141 175 q 143 226 144 260 q 145 295 145 321 l 145 444 q 145 467 144 510 q 142 554 139 600 q 136 646 131 693 z"},"s":{"x_min":0,"x_max":479,"ha":479,"o":"m 279 714 l 263 714 q 209 714 164 692 q 119 671 92 631 q 66 592 66 542 q 66 480 120 426 q 144 403 165 387 q 186 372 228 343 q 270 314 295 296 q 320 278 336 261 q 380 217 380 163 q 380 126 360 92 q 339 57 301 35 q 263 14 211 13 l 211 8 q 271 6 317 29 q 364 52 388 89 q 413 127 413 167 q 413 202 402 230 q 391 258 361 288 q 344 305 299 336 q 255 366 209 397 q 164 428 143 448 q 92 499 92 560 q 92 614 138 660 q 185 707 279 709 z m 40 171 l 77 51 q 105 38 142 30 q 180 22 207 23 q 244 23 274 36 q 305 48 324 68 q 343 87 354 112 q 364 137 364 160 q 364 208 331 242 q 298 275 221 327 q 145 378 110 413 q 80 444 65 475 q 51 506 51 544 q 51 586 74 627 q 97 669 145 697 q 192 724 262 724 q 294 724 330 721 q 365 718 379 718 q 391 718 401 719 q 411 719 417 719 q 423 720 430 721 l 433 554 l 427 554 l 396 667 q 328 697 278 697 q 236 697 202 681 q 169 665 150 637 q 132 610 132 575 q 132 539 157 509 q 182 479 225 450 q 268 421 318 389 q 367 357 397 327 q 455 269 455 193 q 455 150 433 104 q 410 59 357 27 q 304 -5 219 -5 q 189 -5 147 -1 q 104 2 84 2 q 75 2 70 1 q 64 1 54 0 q 43 -1 41 -1 l 33 171 z"},">":{"x_min":0,"x_max":549,"ha":549,"o":"m 523 292 l 523 230 l 26 0 l 26 62 l 459 261 l 26 460 l 26 522 z"},"l":{"x_min":0,"x_max":625,"ha":625,"o":"m 166 697 l 166 19 l 200 19 l 200 697 z m 18 710 l 18 715 l 387 715 l 387 710 l 266 693 q 260 646 255 565 q 251 485 251 425 l 251 215 q 251 139 259 57 q 342 31 431 31 q 474 31 510 36 q 546 41 561 45 l 612 178 l 619 178 l 596 0 l 17 0 l 17 5 l 134 22 q 140 45 144 105 q 148 166 150 229 q 153 293 153 320 l 153 443 q 153 483 151 536 q 149 588 146 628 q 144 667 139 693 z"},"8":{"x_min":0,"x_max":625,"ha":625,"o":"m 324 723 q 389 723 438 701 q 486 678 512 638 q 537 598 537 548 q 537 492 499 446 q 461 400 394 383 l 394 381 q 463 352 500 331 q 538 311 564 273 q 590 236 590 180 q 590 109 535 54 q 503 22 457 8 q 410 -7 323 -7 q 246 -7 191 9 q 136 25 102 59 q 53 107 53 180 q 53 223 73 261 q 92 299 131 326 q 169 354 225 363 q 189 385 163 412 q 137 438 122 472 q 107 505 107 543 q 107 574 117 604 q 128 634 153 662 q 179 689 222 706 q 265 723 324 723 z m 360 12 l 360 8 q 425 11 464 36 q 503 61 520 97 q 537 133 537 174 q 537 232 497 272 q 476 293 445 309 q 414 325 358 350 q 302 374 269 392 q 235 411 209 436 q 182 463 168 493 q 154 522 154 551 q 154 582 168 615 q 183 649 217 675 q 250 701 304 706 l 304 712 q 266 712 224 693 q 182 674 152 635 q 123 597 123 541 q 123 512 137 480 q 151 447 178 421 q 210 390 245 370 q 281 350 337 325 q 394 300 420 287 q 447 273 466 254 q 503 217 503 162 q 503 104 465 62 q 427 20 360 12 z m 326 695 q 292 695 262 678 q 232 661 216 631 q 199 602 199 566 q 199 543 208 521 q 216 500 234 479 q 252 458 282 438 q 312 418 351 400 q 389 410 417 448 q 446 486 446 543 q 446 614 410 655 q 375 695 326 695 z m 349 710 l 349 704 q 409 690 436 643 q 463 596 463 543 q 463 511 452 481 q 442 452 421 429 q 400 406 368 393 l 374 390 q 494 435 494 542 q 494 610 454 655 q 414 700 349 710 z m 261 342 q 217 333 184 289 q 151 246 151 183 q 151 138 172 101 q 193 63 233 42 q 272 21 327 21 q 381 21 418 44 q 455 67 471 100 q 487 132 487 159 q 487 199 468 225 q 449 251 420 267 q 392 283 338 306 q 285 329 261 342 z m 242 352 l 239 355 q 188 347 150 322 q 111 298 90 261 q 69 224 69 180 q 69 135 94 96 q 119 57 165 33 q 211 9 271 6 l 271 11 q 217 16 178 42 q 139 68 120 106 q 100 144 100 183 q 100 232 135 283 q 171 333 242 352 z"},"\\":{"x_min":0,"x_max":385,"ha":385,"o":"m 108 717 l 324 77 q 336 43 350 28 q 363 12 382 8 l 382 2 l 289 2 l 72 647 q 52 709 18 712 l 18 717 z"},"e":{"x_min":0,"x_max":573,"ha":573,"o":"m 158 696 l 158 19 l 192 19 l 192 696 z m 10 710 l 10 715 l 530 715 l 542 563 l 534 563 l 499 682 q 458 685 406 685 q 312 685 254 672 q 244 593 244 491 q 244 428 248 388 q 325 384 346 384 q 401 384 460 390 l 482 473 l 490 473 l 490 265 l 482 265 l 459 353 q 417 358 365 358 q 301 358 248 352 q 242 295 244 241 q 245 172 247 127 q 248 82 252 49 q 312 31 408 31 q 464 31 502 35 l 541 153 l 548 153 l 537 0 l 11 0 l 11 5 l 128 22 q 132 42 135 83 q 138 124 141 175 q 143 226 144 260 q 145 295 145 321 l 145 444 q 145 467 144 510 q 142 554 139 600 q 136 646 131 693 z"},"b":{"x_min":0,"x_max":667,"ha":667,"o":"m 11 5 l 134 23 q 142 63 147 160 q 152 258 152 312 l 152 469 q 152 536 148 596 q 145 657 139 693 l 12 710 l 12 715 l 375 715 q 453 715 499 690 q 545 665 563 627 q 582 589 582 548 q 582 474 532 430 q 483 387 412 381 l 412 379 q 485 375 537 349 q 588 322 615 280 q 641 237 641 189 q 641 148 621 105 q 601 62 547 31 q 494 0 404 0 l 11 0 z m 320 688 q 282 688 263 682 q 251 604 251 497 q 251 419 254 397 q 275 388 312 388 q 361 388 399 406 q 437 424 459 459 q 481 494 481 545 q 481 584 464 617 q 448 649 412 669 q 375 688 320 688 z m 321 362 q 273 362 254 355 q 250 319 250 239 q 250 143 257 55 q 285 40 307 34 q 329 28 362 28 q 414 28 452 46 q 491 63 512 99 q 534 135 534 186 q 534 237 510 277 q 485 316 437 339 q 389 362 321 362 z m 166 697 l 166 19 l 200 19 l 200 697 z m 333 703 l 333 699 q 386 698 424 677 q 461 657 479 622 q 498 587 498 542 q 498 499 482 467 q 465 434 440 416 q 415 397 387 390 l 387 385 q 455 394 493 439 q 531 483 531 545 q 531 583 518 613 q 506 643 483 663 q 459 684 430 695 q 400 705 362 705 q 353 705 333 703 z m 387 371 l 387 367 q 430 359 468 337 q 505 314 528 276 q 551 237 551 184 q 551 141 532 103 q 513 65 471 41 q 429 16 365 16 l 365 12 q 373 10 394 10 q 456 10 500 34 q 543 59 565 99 q 587 139 587 184 q 587 238 564 279 q 541 321 496 345 q 451 369 387 371 z"},"%":{"x_min":0,"x_max":958,"ha":958,"o":"m 734 315 q 704 315 680 296 q 656 277 644 241 q 631 206 631 157 q 631 106 643 70 q 655 34 677 17 q 700 -1 729 -1 q 780 -1 808 42 q 836 86 836 159 q 836 241 808 278 q 780 315 734 315 z m 748 331 l 748 323 q 790 311 819 272 q 847 233 847 163 q 847 90 820 44 q 793 -2 740 -8 l 740 -18 q 772 -14 799 2 q 826 18 844 42 q 861 65 871 97 q 880 129 880 165 q 880 225 844 271 q 809 318 748 331 z m 715 -18 l 715 -10 q 658 2 626 45 q 595 88 595 161 q 595 205 610 240 q 625 276 655 298 q 684 320 724 327 l 724 335 q 665 331 613 287 q 562 243 562 157 q 562 109 582 71 q 601 33 636 10 q 670 -13 715 -18 z m 736 341 q 793 341 835 315 q 877 290 899 249 q 921 208 921 163 q 921 116 898 73 q 875 29 831 2 q 788 -25 733 -25 q 682 -25 640 -1 q 598 22 574 64 q 550 105 550 158 q 550 210 573 252 q 597 294 639 317 q 682 341 736 341 z m 235 697 q 204 697 181 677 q 157 658 145 623 q 133 588 133 539 q 133 462 159 421 q 186 381 231 381 q 283 381 310 424 q 338 467 338 541 q 338 624 310 660 q 281 697 235 697 z m 250 712 l 250 705 q 291 693 320 654 q 348 614 348 545 q 348 497 337 460 q 325 423 301 400 q 277 377 241 373 l 241 364 q 307 373 344 422 q 381 472 381 546 q 381 605 345 653 q 310 700 250 712 z m 217 364 l 217 371 q 159 384 128 427 q 97 470 96 543 q 96 610 131 654 q 166 699 226 709 l 226 717 q 167 713 115 669 q 63 625 63 539 q 64 502 75 472 q 86 441 107 419 q 127 396 155 382 q 183 368 217 364 z m 238 723 q 294 723 336 698 q 378 672 400 631 q 422 589 422 545 q 422 510 409 477 q 397 444 372 416 q 348 389 312 372 q 276 356 235 356 q 183 356 141 380 q 100 404 76 446 q 52 487 52 540 q 52 593 75 634 q 99 676 141 699 q 183 723 238 723 z m 703 723 l 734 723 l 268 -26 l 238 -26 z"},"m":{"x_min":0,"x_max":1052,"ha":1052,"o":"m 135 696 l 488 44 l 505 77 l 169 696 z m 846 664 l 818 607 l 861 19 l 896 19 l 848 664 z m 13 715 l 223 715 q 250 656 268 619 q 287 582 313 532 l 450 278 q 501 186 535 140 q 563 186 625 304 l 750 539 q 804 641 832 715 l 1041 715 l 1041 710 l 911 692 q 908 649 908 606 q 908 561 917 422 q 925 283 938 163 q 950 43 960 22 l 1050 5 l 1050 0 l 715 0 l 715 5 l 831 22 q 835 59 835 122 q 835 157 833 213 q 830 269 825 341 q 820 414 812 475 q 805 537 799 558 q 776 521 751 474 l 561 118 q 516 31 501 -7 l 494 -7 q 484 16 459 65 q 434 114 419 142 l 260 437 q 219 512 193 557 q 189 538 183 468 q 176 399 170 318 q 164 237 160 180 q 157 123 157 90 q 157 67 159 23 l 252 5 l 252 0 l 12 0 l 12 5 l 105 23 q 112 43 124 158 q 135 273 144 394 q 153 516 153 570 q 153 589 151 629 q 137 658 96 692 l 13 710 z"},"#":{"x_min":0,"x_max":500,"ha":500,"o":"m 207 466 l 332 466 l 360 673 l 407 673 l 379 466 l 481 466 l 475 420 l 372 420 l 348 238 l 451 238 l 445 192 l 341 192 l 313 -16 l 266 -16 l 294 192 l 170 192 l 141 -16 l 94 -16 l 123 192 l 20 192 l 26 238 l 129 238 l 154 420 l 54 420 l 60 466 l 160 466 l 189 673 l 236 673 z m 325 420 l 201 420 l 176 238 l 301 238 z"},",":{"x_min":0,"x_max":240,"ha":240,"o":"m 127 11 l 127 99 q 83 95 83 53 q 83 37 94 25 q 105 13 127 11 z m 92 -88 l 87 -83 q 123 -47 126 -4 q 100 -4 83 13 q 67 31 67 53 q 67 79 83 97 q 98 115 127 115 q 157 115 171 93 q 186 70 186 46 q 186 -4 155 -39 q 123 -73 92 -88 z"},"n":{"x_min":0,"x_max":906,"ha":906,"o":"m 12 710 l 12 715 l 259 715 q 283 682 322 635 q 361 588 391 554 l 610 311 q 653 264 677 238 q 702 212 740 175 q 743 208 744 238 q 745 267 745 293 l 745 504 q 745 618 734 692 l 615 710 l 615 715 l 906 715 l 906 710 l 787 691 q 778 623 778 516 l 778 -19 l 773 -19 q 698 76 625 158 l 326 491 q 260 562 213 604 q 206 538 206 480 l 206 171 q 206 109 216 23 l 340 5 l 340 0 l 43 0 l 43 5 l 163 22 q 169 57 171 122 q 174 187 174 238 l 174 477 q 174 520 172 561 q 171 603 167 644 l 102 692 z m 158 697 l 748 41 l 748 87 l 199 697 z"},"h":{"x_min":0,"x_max":906,"ha":906,"o":"m 706 697 l 706 19 l 740 19 l 740 697 z m 141 696 l 141 19 l 175 19 l 175 696 z m 13 715 l 368 715 l 368 710 l 239 693 q 233 666 230 598 q 226 530 226 483 q 226 442 229 382 q 300 368 443 368 q 514 368 576 371 q 638 374 689 382 q 693 429 693 495 q 693 534 691 573 q 688 613 686 637 q 684 661 679 694 l 550 710 l 550 715 l 905 715 l 905 710 l 805 694 q 797 658 794 572 q 790 486 790 406 l 790 242 q 790 95 805 22 l 906 5 l 906 0 l 550 0 l 550 5 l 677 22 q 690 105 693 204 q 694 229 693 266 q 692 302 689 342 l 228 342 q 226 305 226 227 q 226 181 229 119 q 232 57 240 22 l 368 5 l 368 0 l 12 0 l 12 5 l 111 22 q 114 42 118 92 q 122 143 125 206 q 127 269 127 312 l 127 492 q 127 500 125 544 q 124 587 120 631 q 117 674 113 694 l 13 710 z"},"z":{"x_min":0,"x_max":667,"ha":667,"o":"m 548 695 l 47 20 l 86 20 l 586 695 z m 54 554 l 76 723 q 120 719 131 718 q 158 715 181 715 l 645 715 l 645 695 l 328 268 q 297 226 254 163 q 211 100 187 54 q 211 47 274 39 q 336 31 375 31 l 445 31 q 461 31 507 35 q 552 39 581 44 l 633 169 l 640 169 l 615 0 l 30 0 l 30 19 l 359 464 q 435 566 490 661 q 472 668 419 677 q 367 686 316 686 l 240 686 q 214 686 167 682 q 120 677 103 673 l 61 554 z"},"B":{"x_min":0,"x_max":667,"ha":667,"o":"m 11 5 l 134 23 q 142 63 147 160 q 152 258 152 312 l 152 469 q 152 536 148 596 q 145 657 139 693 l 12 710 l 12 715 l 375 715 q 453 715 499 690 q 545 665 563 627 q 582 589 582 548 q 582 474 532 430 q 483 387 412 381 l 412 379 q 485 375 537 349 q 588 322 615 280 q 641 237 641 189 q 641 148 621 105 q 601 62 547 31 q 494 0 404 0 l 11 0 z m 320 688 q 282 688 263 682 q 251 604 251 497 q 251 419 254 397 q 275 388 312 388 q 361 388 399 406 q 437 424 459 459 q 481 494 481 545 q 481 584 464 617 q 448 649 412 669 q 375 688 320 688 z m 321 362 q 273 362 254 355 q 250 319 250 239 q 250 143 257 55 q 285 40 307 34 q 329 28 362 28 q 414 28 452 46 q 491 63 512 99 q 534 135 534 186 q 534 237 510 277 q 485 316 437 339 q 389 362 321 362 z m 166 697 l 166 19 l 200 19 l 200 697 z m 333 703 l 333 699 q 386 698 424 677 q 461 657 479 622 q 498 587 498 542 q 498 499 482 467 q 465 434 440 416 q 415 397 387 390 l 387 385 q 455 394 493 439 q 531 483 531 545 q 531 583 518 613 q 506 643 483 663 q 459 684 430 695 q 400 705 362 705 q 353 705 333 703 z m 387 371 l 387 367 q 430 359 468 337 q 505 314 528 276 q 551 237 551 184 q 551 141 532 103 q 513 65 471 41 q 429 16 365 16 l 365 12 q 373 10 394 10 q 456 10 500 34 q 543 59 565 99 q 587 139 587 184 q 587 238 564 279 q 541 321 496 345 q 451 369 387 371 z"},"K":{"x_min":0,"x_max":813,"ha":813,"o":"m 154 696 l 154 18 l 189 18 l 189 696 z m 318 412 l 296 390 l 602 18 l 643 18 z m 378 5 l 378 0 l 12 0 l 12 5 l 123 20 q 129 61 133 118 q 137 175 139 229 q 141 282 141 326 l 141 464 q 141 522 137 589 q 133 655 127 692 l 12 710 l 12 715 l 379 715 l 379 710 l 252 692 q 247 657 244 598 q 240 539 240 512 l 240 386 q 273 409 315 446 q 356 482 408 531 q 513 631 564 692 l 449 710 l 449 715 l 728 715 l 728 710 l 632 693 q 620 685 591 659 q 562 633 521 595 q 481 557 434 513 q 386 469 362 447 q 391 398 450 328 l 558 196 q 654 81 723 22 l 813 5 l 813 0 l 471 0 l 471 5 l 564 22 q 534 72 486 136 q 438 200 384 264 q 330 328 285 376 l 239 333 l 239 226 q 239 198 243 126 q 247 55 252 22 z"},"R":{"x_min":0,"x_max":771,"ha":771,"o":"m 151 291 l 151 442 q 151 500 147 575 q 143 650 137 693 l 20 710 l 20 715 l 341 715 q 432 715 487 678 q 541 642 562 595 q 583 549 583 515 q 583 469 562 432 q 541 396 507 375 q 473 353 438 349 l 438 347 q 471 334 493 312 q 510 295 532 264 q 554 233 590 179 q 626 125 648 95 q 670 65 689 46 q 730 5 770 5 l 770 0 l 685 0 q 614 0 572 43 q 555 60 539 82 q 522 105 487 157 q 452 208 427 242 q 403 276 389 290 q 368 311 351 318 q 333 325 300 325 q 269 325 252 322 q 249 295 249 263 l 249 173 q 249 116 261 22 l 383 5 l 383 0 l 20 0 l 20 5 l 135 22 q 142 71 146 161 q 151 250 151 291 z m 248 514 l 248 434 q 248 392 251 355 q 270 352 306 352 q 369 352 407 374 q 445 395 462 429 q 478 464 478 505 q 478 545 462 580 q 446 614 421 637 q 396 661 365 674 q 334 687 304 687 q 276 687 260 683 q 255 655 252 602 q 248 549 248 514 z m 424 272 l 530 118 q 568 64 598 41 q 627 18 668 17 l 668 22 q 629 33 569 121 l 484 243 q 457 283 433 304 q 409 324 374 331 l 372 327 q 399 310 424 272 z m 163 696 l 163 19 l 198 19 l 198 696 z m 297 704 l 297 699 q 364 698 409 667 q 454 636 475 591 q 495 546 495 502 q 495 404 410 361 l 413 359 q 463 372 495 413 q 528 455 528 512 q 528 557 510 594 q 493 630 463 654 q 433 679 396 691 q 358 704 321 704 z"},"T":{"x_min":0,"x_max":719,"ha":719,"o":"m 330 697 l 330 19 l 363 19 l 363 697 z m 119 715 l 543 715 q 582 715 614 717 q 646 719 697 724 l 708 566 l 702 566 l 666 681 q 622 689 573 689 q 532 689 498 685 q 463 680 424 670 q 420 625 418 582 q 416 540 415 504 q 414 468 414 455 l 414 293 q 414 229 418 150 q 423 70 429 23 l 550 5 l 550 0 l 181 0 l 181 5 l 300 23 q 315 131 315 284 l 315 461 q 315 516 312 569 q 310 622 304 670 q 276 678 238 682 q 201 687 167 688 q 114 688 62 679 l 27 563 l 20 563 l 31 723 q 45 722 73 719 q 101 715 119 715 z"},"P":{"x_min":0,"x_max":625,"ha":625,"o":"m 17 717 l 356 717 q 438 717 483 702 q 529 687 559 657 q 584 632 597 596 q 611 560 611 521 q 611 463 581 414 q 551 365 496 336 q 442 306 372 306 q 317 306 272 315 l 272 320 q 282 319 303 319 q 358 319 405 338 q 451 356 479 396 q 508 436 508 496 q 508 566 464 627 q 421 689 336 689 q 295 689 263 681 q 260 662 256 584 q 252 506 252 475 l 252 242 q 252 228 254 176 q 256 125 259 87 q 261 49 266 24 l 388 6 l 383 0 l 17 0 l 19 7 l 137 24 q 143 65 146 111 q 148 157 151 221 q 153 286 153 318 l 153 435 q 153 497 149 574 q 145 651 139 694 l 18 711 z m 166 698 l 166 20 l 200 20 l 200 698 z m 362 705 l 344 705 l 344 700 q 399 697 441 669 q 482 640 503 595 q 524 549 524 497 q 524 438 499 398 q 473 359 438 342 q 403 324 368 321 l 368 315 l 377 315 q 404 315 447 330 q 489 345 524 387 q 559 430 559 505 q 559 551 540 598 q 521 644 476 675 q 432 705 362 705 z"},"|":{"x_min":0,"x_max":200,"ha":200,"o":"m 65 673 l 135 673 l 135 -177 l 65 -177 z"},"t":{"x_min":0,"x_max":719,"ha":719,"o":"m 330 697 l 330 19 l 363 19 l 363 697 z m 119 715 l 543 715 q 582 715 614 717 q 646 719 697 724 l 708 566 l 702 566 l 666 681 q 622 689 573 689 q 532 689 498 685 q 463 680 424 670 q 420 625 418 582 q 416 540 415 504 q 414 468 414 455 l 414 293 q 414 229 418 150 q 423 70 429 23 l 550 5 l 550 0 l 181 0 l 181 5 l 300 23 q 315 131 315 284 l 315 461 q 315 516 312 569 q 310 622 304 670 q 276 678 238 682 q 201 687 167 688 q 114 688 62 679 l 27 563 l 20 563 l 31 723 q 45 722 73 719 q 101 715 119 715 z"},"M":{"x_min":0,"x_max":1052,"ha":1052,"o":"m 135 696 l 488 44 l 505 77 l 169 696 z m 846 664 l 818 607 l 861 19 l 896 19 l 848 664 z m 13 715 l 223 715 q 250 656 268 619 q 287 582 313 532 l 450 278 q 501 186 535 140 q 563 186 625 304 l 750 539 q 804 641 832 715 l 1041 715 l 1041 710 l 911 692 q 908 649 908 606 q 908 561 917 422 q 925 283 938 163 q 950 43 960 22 l 1050 5 l 1050 0 l 715 0 l 715 5 l 831 22 q 835 59 835 122 q 835 157 833 213 q 830 269 825 341 q 820 414 812 475 q 805 537 799 558 q 776 521 751 474 l 561 118 q 516 31 501 -7 l 494 -7 q 484 16 459 65 q 434 114 419 142 l 260 437 q 219 512 193 557 q 189 538 183 468 q 176 399 170 318 q 164 237 160 180 q 157 123 157 90 q 157 67 159 23 l 252 5 l 252 0 l 12 0 l 12 5 l 105 23 q 112 43 124 158 q 135 273 144 394 q 153 516 153 570 q 153 589 151 629 q 137 658 96 692 l 13 710 z"},"g":{"x_min":0,"x_max":813,"ha":813,"o":"m 638 255 l 638 64 l 671 76 l 671 255 z m 814 269 l 736 251 q 729 215 726 160 q 722 104 722 60 q 666 38 631 26 q 595 15 546 5 q 497 -4 439 -4 q 343 -4 270 26 q 196 57 149 108 q 101 159 78 221 q 55 284 55 347 q 55 422 81 490 q 106 558 155 612 q 205 665 276 696 q 348 726 438 726 q 452 726 460 726 q 468 725 480 725 q 493 724 513 723 q 573 719 626 719 q 675 719 706 722 l 713 559 l 706 559 l 675 668 q 656 673 628 678 q 601 683 566 687 q 531 691 490 691 q 405 691 342 663 q 279 636 240 589 q 202 542 185 486 q 167 429 167 370 q 167 303 192 244 q 216 184 261 138 q 307 92 367 67 q 427 41 494 41 q 512 41 530 43 q 549 45 569 48 q 588 51 614 55 q 624 99 624 147 q 624 214 614 252 l 488 269 l 488 275 l 814 275 z m 497 708 l 497 712 q 464 715 438 715 q 359 715 292 688 q 226 660 177 611 q 128 561 102 493 q 75 425 75 347 q 75 256 121 178 q 166 101 251 55 q 336 9 451 9 q 473 9 510 13 l 510 17 q 402 17 325 46 q 248 76 201 127 q 153 179 132 240 q 111 301 111 362 q 111 437 135 500 q 159 564 206 610 q 252 657 322 682 q 392 708 480 708 z"},"j":{"x_min":0,"x_max":531,"ha":531,"o":"m 332 696 l 332 185 q 332 150 319 110 q 306 70 273 42 q 240 13 185 12 l 187 7 q 253 10 293 37 q 333 64 349 110 q 366 156 366 220 l 366 696 z m 417 462 l 417 241 q 417 120 357 56 q 296 -7 196 -7 q 179 -7 153 -4 q 126 -1 99 3 q 72 8 47 17 l 27 177 l 34 177 l 84 54 q 131 23 181 23 q 234 23 276 64 q 319 104 319 204 l 319 443 q 319 496 315 574 q 311 652 305 693 l 176 710 l 176 715 l 531 715 l 531 710 l 429 692 q 417 581 417 462 z"},"i":{"x_min":0,"x_max":385,"ha":385,"o":"m 166 696 l 166 19 l 200 19 l 200 696 z m 386 0 l 17 0 l 17 5 l 136 23 q 145 84 149 170 q 153 256 153 339 l 153 421 q 153 588 138 693 l 17 710 l 17 715 l 386 715 l 386 710 l 264 693 q 259 646 256 607 q 254 569 252 514 q 250 460 250 412 l 250 304 q 250 274 252 207 q 254 139 258 92 q 262 45 265 22 l 386 5 z"},"y":{"x_min":0,"x_max":813,"ha":813,"o":"m 374 19 l 407 19 l 407 324 l 175 697 l 139 697 l 374 321 z m 111 693 l 12 710 l 12 715 l 392 715 l 392 710 l 246 693 q 279 621 338 524 q 398 428 445 368 q 496 425 566 527 q 636 629 670 693 l 527 710 l 527 715 l 811 715 l 811 709 l 727 693 q 698 659 671 623 q 645 586 602 526 q 560 465 535 429 q 511 393 462 318 q 458 258 458 184 q 458 83 473 22 l 594 5 l 594 0 l 224 0 l 224 5 l 343 22 q 351 53 355 106 q 360 159 360 206 q 360 241 357 316 q 329 368 285 439 q 241 510 195 578 q 148 646 111 693 z"},"@":{"x_min":0,"x_max":921,"ha":921,"o":"m 690 468 l 633 273 l 603 168 q 590 117 587 90 l 587 88 q 587 71 598 61 q 608 50 625 50 q 652 50 687 71 q 721 91 746 121 q 786 170 808 236 q 831 301 831 366 q 831 432 808 487 q 785 543 744 584 q 702 625 646 647 q 589 669 522 669 q 448 669 382 646 q 316 624 262 579 q 208 535 169 469 q 133 410 115 341 q 96 273 96 202 q 96 91 145 2 q 193 -86 280 -136 q 367 -186 475 -186 q 610 -186 712 -116 q 814 -46 870 84 l 898 84 q 877 18 836 -38 q 796 -93 740 -133 q 684 -173 617 -195 q 550 -216 477 -216 q 387 -216 308 -184 q 229 -152 171 -93 q 112 -35 81 44 q 49 123 49 215 q 49 315 84 403 q 120 491 183 556 q 246 622 332 658 q 418 695 517 695 q 616 695 695 652 q 773 610 817 533 q 860 456 860 359 q 860 290 839 228 q 818 166 782 118 q 745 70 697 42 q 648 15 595 15 q 554 15 535 32 q 516 48 516 85 q 516 108 525 152 l 523 154 q 479 99 445 68 q 418 44 388 30 q 358 15 334 15 q 295 15 270 48 q 244 81 244 133 q 244 172 260 219 q 276 265 304 311 q 332 356 367 392 q 406 431 443 451 q 481 471 514 471 q 582 471 596 403 l 598 403 l 613 457 z m 518 448 q 484 448 446 411 q 408 374 373 306 q 350 263 335 218 q 321 173 321 148 q 321 115 337 95 q 354 74 379 74 q 398 74 421 86 q 445 99 464 118 q 484 138 505 166 q 526 194 537 215 q 554 248 571 315 q 579 351 579 373 q 579 396 572 413 q 564 430 550 439 q 536 448 518 448 z"},".":{"x_min":0,"x_max":240,"ha":240,"o":"m 125 11 l 125 100 q 104 98 93 85 q 82 72 82 55 q 82 39 94 26 q 105 13 125 11 z m 126 115 q 151 115 169 97 q 186 80 186 54 q 186 30 168 12 q 150 -5 125 -5 q 100 -5 82 12 q 65 30 65 54 q 65 80 83 97 q 101 115 126 115 z"},"p":{"x_min":0,"x_max":625,"ha":625,"o":"m 17 717 l 356 717 q 438 717 483 702 q 529 687 559 657 q 584 632 597 596 q 611 560 611 521 q 611 463 581 414 q 551 365 496 336 q 442 306 372 306 q 317 306 272 315 l 272 320 q 282 319 303 319 q 358 319 405 338 q 451 356 479 396 q 508 436 508 496 q 508 566 464 627 q 421 689 336 689 q 295 689 263 681 q 260 662 256 584 q 252 506 252 475 l 252 242 q 252 228 254 176 q 256 125 259 87 q 261 49 266 24 l 388 6 l 383 0 l 17 0 l 19 7 l 137 24 q 143 65 146 111 q 148 157 151 221 q 153 286 153 318 l 153 435 q 153 497 149 574 q 145 651 139 694 l 18 711 z m 166 698 l 166 20 l 200 20 l 200 698 z m 362 705 l 344 705 l 344 700 q 399 697 441 669 q 482 640 503 595 q 524 549 524 497 q 524 438 499 398 q 473 359 438 342 q 403 324 368 321 l 368 315 l 377 315 q 404 315 447 330 q 489 345 524 387 q 559 430 559 505 q 559 551 540 598 q 521 644 476 675 q 432 705 362 705 z"},"X":{"x_min":0,"x_max":906,"ha":906,"o":"m 146 698 l 699 19 l 739 19 l 187 698 z m 11 715 l 420 715 l 420 710 l 264 694 q 291 653 313 621 q 336 588 363 554 q 390 521 422 483 q 455 445 489 406 q 527 445 577 502 q 627 559 666 608 q 705 658 727 694 l 578 710 l 578 715 l 905 715 l 905 710 l 790 695 q 759 667 720 623 q 681 579 637 526 q 593 473 561 431 q 528 390 517 371 q 546 332 594 272 q 641 212 679 167 q 717 121 752 83 q 787 44 813 21 l 904 5 l 904 0 l 507 0 l 507 5 l 662 22 q 622 90 557 171 q 492 253 430 320 q 380 269 333 213 q 286 158 247 108 q 208 57 184 22 l 333 5 l 333 0 l 9 0 l 9 5 l 121 22 q 191 90 272 188 q 354 286 403 355 q 355 418 306 480 q 256 542 205 603 q 154 663 120 694 l 11 710 z"},"*":{"x_min":0,"x_max":438,"ha":438,"o":"m 223 701 l 193 701 q 210 645 218 573 l 223 573 z m 170 718 l 277 718 q 233 647 227 552 q 317 596 363 657 l 399 553 q 367 560 335 560 q 311 560 282 556 q 254 552 232 546 q 298 471 366 444 l 282 379 q 274 457 223 540 q 182 465 172 379 l 81 441 q 153 474 216 547 q 164 557 124 557 q 79 557 48 548 l 79 651 q 110 618 143 596 q 176 574 217 556 q 215 598 203 640 q 191 682 170 718 z m 368 598 l 247 557 l 248 551 q 310 569 378 568 z m 87 623 l 78 593 l 199 554 l 201 562 q 139 584 87 623 z m 239 529 l 234 525 q 272 461 290 408 l 314 426 z m 208 526 l 203 530 q 171 495 154 478 q 136 461 109 442 l 137 423 z"},"Y":{"x_min":0,"x_max":813,"ha":813,"o":"m 374 19 l 407 19 l 407 324 l 175 697 l 139 697 l 374 321 z m 111 693 l 12 710 l 12 715 l 392 715 l 392 710 l 246 693 q 279 621 338 524 q 398 428 445 368 q 496 425 566 527 q 636 629 670 693 l 527 710 l 527 715 l 811 715 l 811 709 l 727 693 q 698 659 671 623 q 645 586 602 526 q 560 465 535 429 q 511 393 462 318 q 458 258 458 184 q 458 83 473 22 l 594 5 l 594 0 l 224 0 l 224 5 l 343 22 q 351 53 355 106 q 360 159 360 206 q 360 241 357 316 q 329 368 285 439 q 241 510 195 578 q 148 646 111 693 z"},"c":{"x_min":0,"x_max":771,"ha":771,"o":"m 522 713 l 465 713 q 380 713 309 685 q 238 657 189 607 q 140 557 114 491 q 89 426 89 351 q 89 283 115 220 q 141 158 192 110 q 243 61 314 34 q 385 7 472 7 q 511 7 522 8 l 522 14 q 425 12 349 40 q 273 67 224 117 q 174 167 150 229 q 126 292 126 356 q 126 419 147 481 q 168 542 212 594 q 255 645 325 676 q 394 706 488 706 l 522 706 z m 743 132 l 671 -2 q 624 2 603 2 q 577 2 533 -2 q 489 -6 465 -6 q 366 -6 290 25 q 214 55 165 107 q 116 159 92 222 q 68 285 68 349 q 68 432 96 501 q 124 571 175 621 q 227 671 295 698 q 363 724 442 724 q 462 724 468 724 q 473 724 491 723 q 509 722 528 721 q 594 717 629 717 q 707 717 731 721 l 737 557 l 731 557 l 698 666 q 684 669 646 676 q 609 682 574 686 q 539 690 500 690 q 399 690 328 650 q 256 609 220 535 q 184 461 184 365 q 184 291 210 228 q 236 165 282 121 q 329 77 388 54 q 447 31 513 31 q 579 31 636 53 q 693 75 738 134 z"},"!":{"x_min":0,"x_max":240,"ha":240,"o":"m 126 278 l 126 703 q 100 702 89 686 q 79 670 82 635 l 122 278 z m 131 157 l 121 157 q 121 189 112 271 q 103 352 92 429 q 82 507 73 579 q 63 651 63 662 q 63 687 80 704 q 97 722 128 722 q 144 722 157 715 q 171 708 179 693 q 188 678 188 658 q 188 651 179 583 q 170 516 156 410 q 143 304 137 247 q 131 190 131 157 z m 126 8 l 126 97 q 108 96 96 83 q 83 71 83 51 q 83 36 95 22 q 108 9 126 8 z m 127 112 q 151 112 169 95 q 186 78 186 53 q 186 28 168 11 q 151 -7 127 -7 q 103 -7 85 11 q 67 28 67 53 q 67 78 85 95 q 103 112 127 112 z"},"/":{"x_min":0,"x_max":385,"ha":385,"o":"m 291 717 l 382 717 l 382 712 q 348 709 327 647 l 111 2 l 17 2 l 17 8 q 37 12 51 28 q 64 44 75 77 z"},"[":{"x_min":0,"x_max":333,"ha":333,"o":"m 64 698 l 64 20 l 98 20 l 98 698 z m 50 85 l 50 603 q 50 669 46 718 l 331 718 l 331 711 l 163 694 q 148 597 148 404 l 148 290 q 148 238 152 155 q 156 72 163 24 l 332 7 l 332 1 l 47 1 q 50 30 50 85 z"},"6":{"x_min":0,"x_max":573,"ha":573,"o":"m 155 338 l 155 275 q 155 202 176 145 q 196 88 230 59 q 265 29 303 29 q 338 29 368 55 q 399 81 417 130 q 436 179 436 241 q 436 306 416 347 q 395 387 365 404 q 336 420 304 420 q 259 420 222 398 q 185 375 155 338 z m 572 698 l 570 691 q 535 702 497 702 q 446 702 391 680 q 335 659 288 617 q 241 575 207 510 q 173 446 160 363 l 162 361 q 196 412 244 442 q 292 472 346 472 q 393 472 429 455 q 465 437 491 406 q 517 375 529 335 q 542 294 542 250 q 542 193 522 146 q 502 98 468 64 q 434 30 394 12 q 355 -5 315 -5 q 230 -5 170 40 q 109 84 78 156 q 48 229 48 308 q 48 388 76 464 q 104 541 156 599 q 207 658 274 692 q 342 725 420 725 q 461 725 502 718 q 543 711 572 698 z m 256 426 l 256 423 q 273 433 306 433 q 351 433 384 411 q 417 389 434 344 q 452 300 452 237 q 452 174 433 128 q 415 82 386 55 q 358 29 330 22 l 330 17 q 375 26 411 57 q 447 87 468 135 q 488 183 488 245 q 488 313 466 358 q 444 403 408 424 q 372 445 330 445 q 314 445 291 439 q 268 434 256 426 z m 282 7 l 282 13 q 229 21 188 61 q 146 101 124 164 q 101 227 101 302 q 101 381 127 451 q 152 522 198 578 q 244 633 305 668 q 366 703 433 710 l 433 715 q 361 715 295 683 q 228 651 176 596 q 125 540 95 466 q 65 393 65 313 q 65 231 94 164 q 123 97 172 55 q 222 14 282 7 z"},"r":{"x_min":0,"x_max":771,"ha":771,"o":"m 151 291 l 151 442 q 151 500 147 575 q 143 650 137 693 l 20 710 l 20 715 l 341 715 q 432 715 487 678 q 541 642 562 595 q 583 549 583 515 q 583 469 562 432 q 541 396 507 375 q 473 353 438 349 l 438 347 q 471 334 493 312 q 510 295 532 264 q 554 233 590 179 q 626 125 648 95 q 670 65 689 46 q 730 5 770 5 l 770 0 l 685 0 q 614 0 572 43 q 555 60 539 82 q 522 105 487 157 q 452 208 427 242 q 403 276 389 290 q 368 311 351 318 q 333 325 300 325 q 269 325 252 322 q 249 295 249 263 l 249 173 q 249 116 261 22 l 383 5 l 383 0 l 20 0 l 20 5 l 135 22 q 142 71 146 161 q 151 250 151 291 z m 248 514 l 248 434 q 248 392 251 355 q 270 352 306 352 q 369 352 407 374 q 445 395 462 429 q 478 464 478 505 q 478 545 462 580 q 446 614 421 637 q 396 661 365 674 q 334 687 304 687 q 276 687 260 683 q 255 655 252 602 q 248 549 248 514 z m 424 272 l 530 118 q 568 64 598 41 q 627 18 668 17 l 668 22 q 629 33 569 121 l 484 243 q 457 283 433 304 q 409 324 374 331 l 372 327 q 399 310 424 272 z m 163 696 l 163 19 l 198 19 l 198 696 z m 297 704 l 297 699 q 364 698 409 667 q 454 636 475 591 q 495 546 495 502 q 495 404 410 361 l 413 359 q 463 372 495 413 q 528 455 528 512 q 528 557 510 594 q 493 630 463 654 q 433 679 396 691 q 358 704 321 704 z"},"2":{"x_min":0,"x_max":531,"ha":531,"o":"m 523 177 l 500 0 l 18 0 l 18 27 q 42 44 66 62 q 90 80 115 99 q 139 119 174 150 q 209 182 234 207 q 307 279 350 349 q 393 418 393 481 q 393 527 370 565 q 348 603 311 625 q 275 647 239 647 q 175 647 135 606 q 95 566 90 513 l 81 513 q 81 515 80 528 q 80 542 79 548 q 79 604 104 644 q 129 684 171 704 q 213 723 266 723 q 312 723 353 707 q 394 691 424 663 q 455 635 472 598 q 489 562 489 519 q 489 472 470 425 q 452 378 420 335 q 389 292 346 249 q 305 208 241 157 q 177 106 101 51 q 114 48 132 44 q 150 40 177 37 q 204 33 238 31 q 273 29 319 29 q 416 29 466 42 l 517 177 z m 176 139 l 180 132 q 253 191 301 237 q 348 284 379 326 q 411 369 426 411 q 442 453 442 492 q 442 552 412 596 q 382 640 337 662 q 293 685 253 685 q 150 685 99 586 l 104 586 q 125 620 158 641 q 191 661 238 661 q 285 661 324 637 q 363 613 385 571 q 408 530 408 481 q 408 431 382 376 q 355 322 304 263 q 253 204 176 139 z"},"{":{"x_min":0,"x_max":479,"ha":479,"o":"m 410 -77 l 410 -94 q 330 -83 279 -30 q 227 24 227 95 q 227 132 237 171 q 249 225 249 246 q 249 273 235 295 q 221 316 196 332 q 171 347 138 351 l 138 371 q 188 377 218 406 q 249 435 249 475 q 249 499 237 550 q 227 589 227 626 q 227 674 250 714 q 274 755 316 782 q 358 809 410 816 l 410 799 q 356 786 328 756 q 300 727 300 683 q 300 670 303 648 q 307 625 312 606 q 322 558 322 530 q 322 493 305 461 q 288 429 255 404 q 223 378 178 362 q 221 346 254 320 q 287 293 304 260 q 322 226 322 191 q 322 163 312 115 q 300 66 300 38 q 300 -5 328 -35 q 356 -64 410 -77 z"},"9":{"x_min":0,"x_max":573,"ha":573,"o":"m 283 690 q 248 690 217 663 q 187 636 168 588 q 150 540 150 480 q 150 396 186 347 q 222 299 284 299 q 318 299 362 320 q 405 341 430 378 q 431 392 431 429 q 431 492 419 542 q 407 591 385 624 q 363 657 337 674 q 311 690 283 690 z m 14 19 l 17 25 q 58 16 88 16 q 181 16 256 68 q 331 120 375 199 q 419 278 426 353 l 424 355 q 386 300 336 273 q 286 246 238 246 q 183 246 138 274 q 93 303 69 354 q 44 405 44 471 q 44 532 73 590 q 102 648 155 686 q 207 723 274 723 q 348 723 408 684 q 468 644 502 572 q 537 499 537 405 q 537 336 511 262 q 486 188 438 128 q 389 67 318 30 q 248 -7 160 -7 q 125 -7 99 -3 q 73 1 52 7 q 30 13 14 19 z m 335 284 l 335 291 q 301 275 263 275 q 223 275 192 290 q 162 305 140 333 q 119 361 107 398 q 96 435 96 477 q 96 537 119 587 q 141 637 178 668 q 215 698 258 705 l 258 713 q 202 705 156 668 q 111 631 86 577 q 61 523 61 463 q 61 408 84 361 q 108 313 148 286 q 189 258 239 258 q 265 258 286 264 q 307 271 335 284 z m 304 705 l 304 698 q 349 688 381 651 q 414 614 431 555 q 448 497 448 426 q 448 331 419 255 q 391 179 345 127 q 299 75 249 47 q 198 19 155 14 l 155 8 q 251 15 326 73 q 401 131 442 221 q 483 311 483 410 q 483 466 469 517 q 455 568 430 609 q 405 650 372 675 q 339 701 304 705 z"}," ":{"x_min":0,"x_max":360,"ha":360,"o":""},"I":{"x_min":0,"x_max":385,"ha":385,"o":"m 166 696 l 166 19 l 200 19 l 200 696 z m 386 0 l 17 0 l 17 5 l 136 23 q 145 84 149 170 q 153 256 153 339 l 153 421 q 153 588 138 693 l 17 710 l 17 715 l 386 715 l 386 710 l 264 693 q 259 646 256 607 q 254 569 252 514 q 250 460 250 412 l 250 304 q 250 274 252 207 q 254 139 258 92 q 262 45 265 22 l 386 5 z"},"H":{"x_min":0,"x_max":906,"ha":906,"o":"m 706 697 l 706 19 l 740 19 l 740 697 z m 141 696 l 141 19 l 175 19 l 175 696 z m 13 715 l 368 715 l 368 710 l 239 693 q 233 666 230 598 q 226 530 226 483 q 226 442 229 382 q 300 368 443 368 q 514 368 576 371 q 638 374 689 382 q 693 429 693 495 q 693 534 691 573 q 688 613 686 637 q 684 661 679 694 l 550 710 l 550 715 l 905 715 l 905 710 l 805 694 q 797 658 794 572 q 790 486 790 406 l 790 242 q 790 95 805 22 l 906 5 l 906 0 l 550 0 l 550 5 l 677 22 q 690 105 693 204 q 694 229 693 266 q 692 302 689 342 l 228 342 q 226 305 226 227 q 226 181 229 119 q 232 57 240 22 l 368 5 l 368 0 l 12 0 l 12 5 l 111 22 q 114 42 118 92 q 122 143 125 206 q 127 269 127 312 l 127 492 q 127 500 125 544 q 124 587 120 631 q 117 674 113 694 l 13 710 z"},"4":{"x_min":0,"x_max":573,"ha":573,"o":"m 386 682 l 352 643 l 352 20 l 386 20 z m 238 268 l 13 268 l 13 290 l 391 724 l 442 724 q 441 711 441 688 q 440 666 439 644 q 438 621 438 608 l 438 403 q 438 358 440 302 q 453 299 482 299 q 514 299 534 303 q 554 308 568 317 l 572 317 l 556 267 l 498 267 q 468 267 441 264 q 437 228 437 170 q 437 86 452 23 l 571 8 l 571 1 l 203 1 l 203 8 l 321 23 q 330 60 334 105 q 339 150 339 193 q 339 233 336 264 q 272 268 238 268 z m 339 397 q 339 460 337 520 q 334 579 330 611 q 278 562 194 462 q 109 362 69 303 q 124 299 217 299 q 277 299 336 302 q 339 338 339 397 z"},"~":{"x_min":0,"x_max":667,"ha":667,"o":"m 572 387 l 593 387 q 592 349 577 319 q 562 288 535 271 q 509 254 477 254 q 461 254 448 256 q 434 258 417 264 q 401 269 374 280 l 293 313 q 248 332 225 338 q 202 344 185 344 q 113 344 95 255 l 74 255 q 77 319 109 354 q 124 370 145 379 q 166 388 185 388 q 220 388 292 361 q 333 345 372 328 q 402 315 421 309 q 440 302 454 299 q 468 296 480 296 q 521 296 544 320 q 567 344 572 387 z"},"D":{"x_min":0,"x_max":865,"ha":865,"o":"m 17 715 l 419 715 q 531 715 610 682 q 689 650 735 598 q 780 545 800 484 q 820 422 820 359 q 820 282 794 216 q 769 149 720 101 q 672 52 607 26 q 542 0 464 0 l 14 0 l 14 5 l 133 22 q 141 63 146 159 q 151 255 151 310 l 151 438 q 151 580 138 692 l 17 710 z m 249 470 l 249 185 q 249 122 256 57 q 287 42 327 36 q 366 29 406 29 q 460 29 514 50 q 567 70 610 111 q 652 151 678 214 q 704 277 704 358 q 704 443 677 505 q 649 567 601 607 q 553 647 491 666 q 429 685 361 685 q 306 685 261 673 q 258 654 256 620 q 253 585 251 539 q 249 493 249 470 z m 165 696 l 165 19 l 199 19 l 199 696 z m 342 703 l 342 698 q 413 698 469 686 q 525 674 564 653 q 602 632 630 604 q 659 575 679 538 q 700 500 712 454 q 724 408 724 357 q 724 243 675 166 q 626 89 555 53 q 484 17 420 17 l 383 17 l 383 12 l 420 12 q 526 12 604 59 q 682 105 722 184 q 762 263 762 355 q 762 437 734 501 q 705 565 662 608 q 570 703 371 703 z"},"^":{"x_min":0,"x_max":469,"ha":469,"o":"m 243 676 l 451 326 l 406 326 l 235 612 l 64 326 l 18 326 l 229 676 z"},"0":{"x_min":0,"x_max":719,"ha":719,"o":"m 373 723 q 441 723 509 690 q 578 658 626 575 q 675 492 675 352 q 675 258 649 189 q 623 120 579 77 q 535 35 481 14 q 426 -7 369 -7 q 295 -7 225 28 q 155 63 109 144 q 63 225 63 352 q 63 460 93 535 q 123 610 170 650 q 216 690 269 707 q 322 723 373 723 z m 368 690 q 303 690 250 638 q 228 616 213 590 q 198 563 188 529 q 179 494 174 449 q 169 405 169 349 q 169 279 178 229 q 188 178 205 143 q 222 107 250 79 q 302 27 368 27 q 436 27 490 81 q 517 108 535 149 q 552 189 560 241 q 568 293 568 358 q 568 468 548 533 q 527 599 485 640 q 435 690 368 690 z m 344 705 l 344 713 q 307 707 266 692 q 225 678 181 640 q 138 602 108 530 q 79 458 79 348 q 79 251 113 176 q 146 100 206 57 q 266 14 345 5 l 345 11 q 282 24 238 54 q 193 84 166 131 q 139 177 127 232 q 115 287 115 355 q 115 527 181 607 q 246 688 344 705 z m 392 707 l 392 699 q 469 683 512 632 q 554 581 570 509 q 585 438 585 351 q 585 250 564 181 q 543 112 500 72 q 458 32 393 16 l 392 9 q 470 21 518 62 q 566 104 588 157 q 610 211 615 260 q 621 310 621 359 q 621 482 589 555 q 557 628 507 661 q 458 693 392 707 z"},"F":{"x_min":0,"x_max":573,"ha":573,"o":"m 159 696 l 159 18 l 193 18 l 193 696 z m 11 715 l 533 715 l 543 560 l 536 560 l 501 683 q 447 686 410 686 q 318 686 255 672 q 251 638 248 579 q 244 520 244 489 q 244 455 248 389 q 293 384 354 384 q 418 384 460 389 l 484 473 l 490 473 l 490 264 l 484 264 l 460 353 q 432 356 406 357 q 381 358 353 358 q 327 358 247 353 q 244 302 244 248 q 244 210 248 136 q 252 62 258 22 l 380 5 l 380 0 l 11 0 l 11 5 l 129 22 q 136 73 141 160 q 145 247 145 306 l 145 442 q 145 467 143 517 q 142 566 139 614 q 136 661 131 692 l 11 710 z"},"`":{"x_min":0,"x_max":333,"ha":333,"o":"m 54 848 l 152 848 l 276 760 l 265 760 z"},"k":{"x_min":0,"x_max":813,"ha":813,"o":"m 154 696 l 154 18 l 189 18 l 189 696 z m 318 412 l 296 390 l 602 18 l 643 18 z m 378 5 l 378 0 l 12 0 l 12 5 l 123 20 q 129 61 133 118 q 137 175 139 229 q 141 282 141 326 l 141 464 q 141 522 137 589 q 133 655 127 692 l 12 710 l 12 715 l 379 715 l 379 710 l 252 692 q 247 657 244 598 q 240 539 240 512 l 240 386 q 273 409 315 446 q 356 482 408 531 q 513 631 564 692 l 449 710 l 449 715 l 728 715 l 728 710 l 632 693 q 620 685 591 659 q 562 633 521 595 q 481 557 434 513 q 386 469 362 447 q 391 398 450 328 l 558 196 q 654 81 723 22 l 813 5 l 813 0 l 471 0 l 471 5 l 564 22 q 534 72 486 136 q 438 200 384 264 q 330 328 285 376 l 239 333 l 239 226 q 239 198 243 126 q 247 55 252 22 z"},"u":{"x_min":0,"x_max":865,"ha":865,"o":"m 474 12 l 474 6 q 532 9 574 25 q 616 40 643 68 q 671 95 685 137 q 698 178 698 233 l 698 697 l 664 697 l 664 234 q 664 136 619 80 q 574 23 474 12 z m 410 6 l 410 12 q 341 16 290 40 q 238 63 209 110 q 180 157 180 224 l 180 697 l 146 697 l 146 207 q 146 117 209 64 q 272 12 410 6 z m 132 207 l 132 479 q 132 570 120 694 l 18 710 l 18 715 l 374 715 l 374 710 l 245 694 q 240 660 237 612 q 234 564 232 510 q 230 456 230 423 l 230 222 q 230 150 259 107 q 288 63 336 45 q 383 27 441 27 q 539 27 595 77 q 651 126 651 238 l 651 447 q 651 502 647 578 q 643 654 637 694 l 509 710 l 509 715 l 863 715 l 863 710 l 763 694 q 756 662 753 588 q 749 514 749 464 l 749 227 q 749 172 736 133 q 723 95 695 67 q 676 48 655 35 q 634 21 602 12 q 569 2 531 -2 q 493 -7 437 -7 q 345 -7 277 14 q 209 34 171 82 q 132 130 132 207 z"},"]":{"x_min":0,"x_max":385,"ha":385,"o":"m 261 698 l 261 19 l 295 19 l 295 698 z m 346 601 l 346 79 q 346 53 350 1 l 64 1 l 64 8 l 230 23 q 235 49 239 90 q 242 130 244 177 q 246 224 247 257 q 248 290 248 322 l 248 431 q 248 500 245 567 q 242 634 234 695 l 65 712 l 65 718 l 350 718 q 346 674 346 601 z"},"U":{"x_min":0,"x_max":865,"ha":865,"o":"m 474 12 l 474 6 q 532 9 574 25 q 616 40 643 68 q 671 95 685 137 q 698 178 698 233 l 698 697 l 664 697 l 664 234 q 664 136 619 80 q 574 23 474 12 z m 410 6 l 410 12 q 341 16 290 40 q 238 63 209 110 q 180 157 180 224 l 180 697 l 146 697 l 146 207 q 146 117 209 64 q 272 12 410 6 z m 132 207 l 132 479 q 132 570 120 694 l 18 710 l 18 715 l 374 715 l 374 710 l 245 694 q 240 660 237 612 q 234 564 232 510 q 230 456 230 423 l 230 222 q 230 150 259 107 q 288 63 336 45 q 383 27 441 27 q 539 27 595 77 q 651 126 651 238 l 651 447 q 651 502 647 578 q 643 654 637 694 l 509 710 l 509 715 l 863 715 l 863 710 l 763 694 q 756 662 753 588 q 749 514 749 464 l 749 227 q 749 172 736 133 q 723 95 695 67 q 676 48 655 35 q 634 21 602 12 q 569 2 531 -2 q 493 -7 437 -7 q 345 -7 277 14 q 209 34 171 82 q 132 130 132 207 z"},"o":{"x_min":0,"x_max":865,"ha":865,"o":"m 436 725 q 540 725 616 690 q 692 656 741 600 q 790 543 812 480 q 835 417 835 359 q 835 292 809 229 q 784 165 734 112 q 684 59 610 27 q 536 -5 445 -5 q 313 -5 222 52 q 131 109 87 193 q 44 277 44 357 q 44 428 72 494 q 99 561 152 613 q 204 666 277 695 q 351 725 436 725 z m 439 691 q 363 691 299 651 q 235 612 197 537 q 159 462 159 361 q 159 251 200 176 q 242 101 306 64 q 371 28 440 28 q 496 28 546 49 q 597 71 636 112 q 676 153 698 214 q 720 274 720 348 q 720 450 697 510 q 673 571 628 616 q 589 655 540 673 q 491 691 439 691 z m 464 711 l 464 706 q 511 703 559 684 q 607 665 649 625 q 690 585 716 518 q 741 451 741 356 q 741 294 726 237 q 711 181 678 133 q 646 85 592 54 q 539 22 465 15 l 465 10 q 527 13 583 37 q 640 61 683 105 q 727 150 752 214 q 778 279 778 358 q 778 444 751 510 q 725 577 680 621 q 634 665 579 687 q 523 709 464 711 z m 416 706 l 416 711 q 348 710 283 682 q 218 653 168 604 q 119 554 92 491 q 64 428 64 359 q 64 274 110 194 q 156 113 238 63 q 319 13 417 10 l 417 15 q 322 23 250 74 q 177 125 139 200 q 101 275 101 356 q 101 422 123 483 q 145 544 187 592 q 228 640 287 670 q 346 700 416 706 z"},"N":{"x_min":0,"x_max":906,"ha":906,"o":"m 12 710 l 12 715 l 259 715 q 283 682 322 635 q 361 588 391 554 l 610 311 q 653 264 677 238 q 702 212 740 175 q 743 208 744 238 q 745 267 745 293 l 745 504 q 745 618 734 692 l 615 710 l 615 715 l 906 715 l 906 710 l 787 691 q 778 623 778 516 l 778 -19 l 773 -19 q 698 76 625 158 l 326 491 q 260 562 213 604 q 206 538 206 480 l 206 171 q 206 109 216 23 l 340 5 l 340 0 l 43 0 l 43 5 l 163 22 q 169 57 171 122 q 174 187 174 238 l 174 477 q 174 520 172 561 q 171 603 167 644 l 102 692 z m 158 697 l 748 41 l 748 87 l 199 697 z"},"+":{"x_min":0,"x_max":549,"ha":549,"o":"m 247 533 l 302 533 l 302 298 l 539 298 l 539 243 l 302 243 l 302 0 l 247 0 l 247 243 l 10 243 l 10 298 l 247 298 z"},"G":{"x_min":0,"x_max":813,"ha":813,"o":"m 638 255 l 638 64 l 671 76 l 671 255 z m 814 269 l 736 251 q 729 215 726 160 q 722 104 722 60 q 666 38 631 26 q 595 15 546 5 q 497 -4 439 -4 q 343 -4 270 26 q 196 57 149 108 q 101 159 78 221 q 55 284 55 347 q 55 422 81 490 q 106 558 155 612 q 205 665 276 696 q 348 726 438 726 q 452 726 460 726 q 468 725 480 725 q 493 724 513 723 q 573 719 626 719 q 675 719 706 722 l 713 559 l 706 559 l 675 668 q 656 673 628 678 q 601 683 566 687 q 531 691 490 691 q 405 691 342 663 q 279 636 240 589 q 202 542 185 486 q 167 429 167 370 q 167 303 192 244 q 216 184 261 138 q 307 92 367 67 q 427 41 494 41 q 512 41 530 43 q 549 45 569 48 q 588 51 614 55 q 624 99 624 147 q 624 214 614 252 l 488 269 l 488 275 l 814 275 z m 497 708 l 497 712 q 464 715 438 715 q 359 715 292 688 q 226 660 177 611 q 128 561 102 493 q 75 425 75 347 q 75 256 121 178 q 166 101 251 55 q 336 9 451 9 q 473 9 510 13 l 510 17 q 402 17 325 46 q 248 76 201 127 q 153 179 132 240 q 111 301 111 362 q 111 437 135 500 q 159 564 206 610 q 252 657 322 682 q 392 708 480 708 z"},"q":{"x_min":0,"x_max":906,"ha":906,"o":"m 896 118 l 903 115 q 884 61 845 29 q 806 -4 746 -4 q 713 -4 682 4 q 651 12 606 29 q 564 11 520 3 q 476 -4 439 -4 q 339 -4 262 30 q 186 63 136 119 q 86 174 63 237 q 40 299 40 357 q 40 427 67 494 q 95 560 147 613 q 199 666 272 695 q 345 725 431 725 q 535 725 612 690 q 688 655 736 600 q 784 545 808 481 q 831 417 831 359 q 831 287 799 216 q 766 145 709 93 q 752 73 795 73 q 829 73 856 86 q 884 98 896 118 z m 638 121 q 656 140 674 173 q 692 207 704 252 q 716 297 716 348 q 716 418 705 468 q 693 517 673 552 q 653 586 623 616 q 548 691 434 691 q 358 691 294 651 q 230 612 192 536 q 154 461 154 361 q 154 287 172 232 q 190 177 216 142 q 242 107 267 89 q 307 134 344 156 q 382 177 435 177 q 509 177 638 121 z m 460 711 l 460 706 q 511 700 559 680 q 607 661 647 622 q 687 583 711 517 q 736 450 736 356 q 736 224 667 125 q 599 25 456 16 l 456 10 q 508 10 564 31 q 619 52 667 95 q 715 138 744 205 q 774 271 774 358 q 774 445 747 512 q 719 579 673 622 q 627 665 571 687 q 515 708 460 711 z m 412 706 l 412 711 q 345 710 280 681 q 215 652 166 603 q 116 554 88 491 q 59 427 59 359 q 59 294 85 233 q 111 171 160 121 q 208 71 274 42 q 339 12 416 10 l 416 16 q 342 22 281 53 q 221 84 180 132 q 139 181 118 238 q 97 296 97 356 q 97 444 136 521 q 175 598 247 647 q 318 697 412 706 z m 567 63 l 602 86 q 561 104 539 114 q 517 123 500 129 q 484 135 463 139 q 441 143 420 143 q 366 143 323 120 l 324 115 q 350 124 379 124 q 412 124 452 110 q 493 97 567 63 z m 273 83 q 350 29 439 29 q 496 29 543 52 q 419 110 358 110 q 306 110 273 83 z m 668 61 l 631 40 q 688 13 751 13 q 824 13 869 67 l 863 67 q 830 39 777 37 q 732 37 668 61 z"},"d":{"x_min":0,"x_max":865,"ha":865,"o":"m 17 715 l 419 715 q 531 715 610 682 q 689 650 735 598 q 780 545 800 484 q 820 422 820 359 q 820 282 794 216 q 769 149 720 101 q 672 52 607 26 q 542 0 464 0 l 14 0 l 14 5 l 133 22 q 141 63 146 159 q 151 255 151 310 l 151 438 q 151 580 138 692 l 17 710 z m 249 470 l 249 185 q 249 122 256 57 q 287 42 327 36 q 366 29 406 29 q 460 29 514 50 q 567 70 610 111 q 652 151 678 214 q 704 277 704 358 q 704 443 677 505 q 649 567 601 607 q 553 647 491 666 q 429 685 361 685 q 306 685 261 673 q 258 654 256 620 q 253 585 251 539 q 249 493 249 470 z m 165 696 l 165 19 l 199 19 l 199 696 z m 342 703 l 342 698 q 413 698 469 686 q 525 674 564 653 q 602 632 630 604 q 659 575 679 538 q 700 500 712 454 q 724 408 724 357 q 724 243 675 166 q 626 89 555 53 q 484 17 420 17 l 383 17 l 383 12 l 420 12 q 526 12 604 59 q 682 105 722 184 q 762 263 762 355 q 762 437 734 501 q 705 565 662 608 q 570 703 371 703 z"},"1":{"x_min":0,"x_max":385,"ha":385,"o":"m 179 20 l 212 20 l 212 696 l 179 680 z m 226 723 l 276 723 q 269 687 266 582 q 263 478 263 367 l 263 234 q 263 127 276 23 l 377 6 l 377 1 l 21 1 l 21 7 l 148 24 q 156 80 160 179 q 165 278 165 337 l 165 457 q 165 494 162 552 q 159 611 153 650 l 32 632 l 32 637 z"},"5":{"x_min":0,"x_max":479,"ha":479,"o":"m 201 697 l 169 697 l 90 431 l 124 438 z m 430 685 l 250 685 q 224 609 207 549 q 190 490 179 443 l 218 443 q 278 443 323 425 q 367 407 393 378 q 419 350 431 316 q 443 282 443 247 q 443 195 419 149 q 395 102 354 67 q 312 31 264 12 q 215 -7 167 -7 q 126 -7 86 2 q 46 11 14 27 l 18 32 q 49 22 85 22 q 139 22 185 39 q 231 56 265 87 q 299 118 317 159 q 336 200 336 247 q 336 293 317 326 q 298 358 268 378 q 237 397 201 406 q 166 414 130 414 q 105 414 69 409 q 89 475 99 510 q 110 544 122 584 q 134 625 143 658 q 153 692 158 716 l 357 716 q 413 716 443 736 l 446 736 z m 185 424 l 184 420 q 219 416 250 402 q 282 389 305 366 q 328 344 341 313 q 353 283 353 243 q 353 205 338 166 q 323 126 293 94 q 263 61 219 39 q 174 18 116 13 l 116 8 l 142 8 q 204 8 261 41 q 319 73 354 128 q 389 184 389 247 q 389 291 373 325 q 357 359 332 381 q 306 402 272 413 q 239 424 203 424 z"}}}
